<?xml version="1.0" encoding="UTF-8"?>
<svg id="Layer_1" data-name="Layer 1" xmlns="http://www.w3.org/2000/svg" viewBox="0 0 288.46 47.54">
  <defs>
    <style>
      .cls-1 {
        fill: #fff;
        stroke: #000;
        stroke-miterlimit: 10;
        stroke-width: .75px;
      }
    </style>
  </defs>
  <path class="cls-1" d="m288.14,5.3h0c-.92-2.31-3.54-3.43-5.85-2.51l-31.81,12.73c-5.32,2.13-11,3.23-16.74,3.23l-11.79-1H72.21l-9.92,1c-4.87,0-9.7-.78-14.32-2.32L5.92,2.45C3.56,1.67,1.02,2.95.23,5.3h0c-.78,2.36.49,4.91,2.85,5.69l45.19,15.03c3.45,1.15,7.07,1.73,10.71,1.73l11.18-1h.34s0,0,0,0h16.7v.11l138.01.89h12.41c4.32,0,8.6-.82,12.61-2.43l35.41-14.17c2.31-.92,3.43-3.54,2.51-5.85Z"/>
  <path class="cls-1" d="m70.5,26.75h0s1.94,6.4,1.94,6.4c1.62-1.98,4.08-3.24,6.83-3.24,3.5,0,6.51,2.04,7.93,4.99v-8.14h-16.7Z"/>
  <path class="cls-1" d="m79.27,29.9c-2.76,0-5.21,1.27-6.83,3.24-1.24,1.52-1.99,3.46-1.99,5.57,0,4.87,3.95,8.82,8.82,8.82s8.82-3.95,8.82-8.82c0-1.37-.32-2.67-.88-3.83-1.43-2.95-4.44-4.99-7.93-4.99Zm0,13.23c-2.44,0-4.41-1.97-4.41-4.41s1.97-4.41,4.41-4.41,4.41,1.97,4.41,4.41-1.97,4.41-4.41,4.41Z"/>
  <path class="cls-1" d="m79.27,34.31c-2.44,0-4.41,1.97-4.41,4.41s1.97,4.41,4.41,4.41,4.41-1.97,4.41-4.41-1.97-4.41-4.41-4.41Z"/>
  <path class="cls-1" d="m209.33,33.15c1.62-1.98,4.08-3.24,6.83-3.24,2.94,0,5.54,1.44,7.14,3.66l1.91-5.81h-15.88v5.4Z"/>
  <path class="cls-1" d="m216.16,29.9c-2.76,0-5.21,1.26-6.83,3.24-1.24,1.52-1.99,3.46-1.99,5.57,0,4.87,3.95,8.82,8.82,8.82s8.82-3.95,8.82-8.82c0-1.93-.63-3.71-1.68-5.16-1.6-2.21-4.2-3.66-7.14-3.66Zm0,13.23c-2.44,0-4.41-1.97-4.41-4.41s1.97-4.41,4.41-4.41,4.41,1.97,4.41,4.41-1.97,4.41-4.41,4.41Z"/>
  <path class="cls-1" d="m216.16,34.31c-2.44,0-4.41,1.97-4.41,4.41s1.97,4.41,4.41,4.41,4.41-1.97,4.41-4.41-1.97-4.41-4.41-4.41Z"/>
</svg>